HIERARCHY
ROOT Hips
{
	OFFSET 0.000000 0.000000 0.000000 
	CHANNELS 6 Xposition Yposition Zposition Zrotation Yrotation Xrotation
	JOINT LeftUpLeg
	{
		OFFSET 1.363060 -1.794630 0.839290 
		CHANNELS 3 Zrotation Yrotation Xrotation
		JOINT LeftLeg
		{
			OFFSET 2.448110 -6.726130 0.000000 
			CHANNELS 3 Zrotation Yrotation Xrotation
			JOINT LeftFoot
			{
				OFFSET 2.562200 -7.039590 0.000000 
				CHANNELS 3 Zrotation Yrotation Xrotation
				JOINT LeftToeBase
				{
					OFFSET 0.157640 -0.433110 2.322550 
					CHANNELS 3 Zrotation Yrotation Xrotation
					End Site
					{
						OFFSET 0.000000 0.000000 0.000000 
					}
				}
			}
		}
	}
	JOINT RightUpLeg
	{
		OFFSET -1.305520 -1.794630 0.839290 
		CHANNELS 3 Zrotation Yrotation Xrotation
		JOINT RightLeg
		{
			OFFSET -2.542530 -6.985550 0.000000 
			CHANNELS 3 Zrotation Yrotation Xrotation
			JOINT RightFoot
			{
				OFFSET -2.568260 -7.056230 0.000000 
				CHANNELS 3 Zrotation Yrotation Xrotation
				JOINT RightToeBase
				{
					OFFSET -0.164730 -0.452590 2.363150 
					CHANNELS 3 Zrotation Yrotation Xrotation
					End Site
					{
						OFFSET 0.000000 0.000000 0.000000 
					}
				}
			}
		}
	}
	JOINT Spine
	{
		OFFSET 0.028270 2.035590 -0.193380 
		CHANNELS 3 Zrotation Yrotation Xrotation
		JOINT Spine1
		{
			OFFSET 0.056720 2.048850 -0.042750 
			CHANNELS 3 Zrotation Yrotation Xrotation
			JOINT Neck1
			{
				OFFSET -0.054170 1.746240 0.172020 
				CHANNELS 3 Zrotation Yrotation Xrotation
				JOINT Head
				{
					OFFSET 0.104070 1.761360 -0.123970 
					CHANNELS 3 Zrotation Yrotation Xrotation
					End Site
					{
						OFFSET 0.000000 0.000000 0.000000 
					}
				}
			}
			JOINT LeftArm
			{
				OFFSET 3.362410 1.200890 -0.311210 
				CHANNELS 3 Zrotation Yrotation Xrotation
				JOINT LeftForeArm
				{
					OFFSET 4.983000 -0.000000 -0.000000 
					CHANNELS 3 Zrotation Yrotation Xrotation
					JOINT LeftHand
					{
						OFFSET 3.483560 -0.000000 -0.000000 
						CHANNELS 3 Zrotation Yrotation Xrotation
						JOINT LeftHandIndex1
						{
							OFFSET 0.715260 -0.000000 -0.000000 
							CHANNELS 3 Zrotation Yrotation Xrotation
							End Site
							{
								OFFSET 0.000000 0.000000 0.000000 
							}
						}
					}
				}
			}
			JOINT RightArm
			{
				OFFSET -3.136600 1.374050 -0.404650 
				CHANNELS 3 Zrotation Yrotation Xrotation
				JOINT RightForeArm
				{
					OFFSET -5.241900 -0.000000 -0.000000 
					CHANNELS 3 Zrotation Yrotation Xrotation
					JOINT RightHand
					{
						OFFSET -3.444170 -0.000000 -0.000000 
						CHANNELS 3 Zrotation Yrotation Xrotation
						JOINT RightHandIndex1
						{
							OFFSET -0.622530 -0.000000 -0.000000 
							CHANNELS 3 Zrotation Yrotation Xrotation
							End Site
							{
								OFFSET 0.000000 0.000000 0.000000 
							}
						}
					}
				}
			}
		}
	}
}
MOTION
Frames: 13
Frame Time: 0.041667
4.607809 17.117675 29.560116 -178.090295 7.447032 -147.068275 -18.606260 -7.775331 -48.058402 -2.342283 20.690913 34.395041 -4.018423 13.767621 8.979471 0.087900 -1.912000 -5.262400 16.347816 10.443866 -51.521855 -0.489540 -24.127440 40.827046 6.626531 -18.517990 1.928913 -0.024400 1.007500 -2.769600 -0.524260 4.427791 -3.732254 -6.491389 2.545432 4.276030 3.231212 10.099076 6.634915 -2.326800 4.918200 9.805000 -59.718698 -18.740824 37.239227 12.226597 -14.829222 -3.340487 -4.416694 -3.098497 -42.804318 -7.125000 0.000000 0.000000 66.410059 15.039367 33.161954 -28.096682 29.735380 -11.450832 0.751959 2.818794 -8.482092 7.125000 0.000000 0.000000 
4.626389 17.081918 29.563622 -178.224077 7.195501 -146.841516 -18.630519 -7.892782 -48.658012 -2.229894 20.949512 34.878465 -3.864227 13.377012 8.834692 0.093400 -1.971500 -5.426800 16.665399 9.811812 -52.106464 -0.712604 -24.226158 41.466435 6.409822 -17.948549 1.913527 -0.031300 1.141700 -3.138900 -0.482830 4.289811 -3.722643 -6.324493 2.477395 4.381775 3.244320 9.734579 6.577651 -2.264600 4.719700 9.836700 -59.761557 -19.071348 37.537967 12.257900 -14.809521 -3.353996 -4.455793 -3.103481 -42.766620 -7.125000 0.000000 0.000000 65.919183 15.651787 33.157956 -28.210544 29.723354 -11.503909 0.770008 2.813415 -8.554935 7.125000 0.000000 0.000000 
4.647189 17.045342 29.563739 -178.367229 6.937615 -146.646315 -18.726070 -7.886072 -49.254929 -2.099959 21.194875 35.423514 -3.624304 12.795953 8.755097 0.089500 -1.929500 -5.310800 16.920861 9.284120 -52.680964 -0.957684 -24.354014 42.132446 6.289903 -17.599043 1.842860 -0.042700 1.333100 -3.665900 -0.439784 4.143910 -3.708886 -6.143702 2.403614 4.497325 3.265644 9.428979 6.496618 -2.190900 4.548900 9.850600 -59.780785 -19.427208 37.730695 12.277466 -14.775304 -3.360103 -4.481786 -3.090104 -42.547183 -7.125000 0.000000 0.000000 65.370246 16.308206 33.222598 -28.291158 29.676757 -11.530894 0.795879 2.815698 -8.719403 7.125000 0.000000 0.000000 
4.669158 17.003041 29.565491 -178.488120 6.663241 -146.423082 -18.855429 -7.756388 -49.924994 -1.957637 21.428050 35.999380 -3.325595 12.081787 8.719540 0.087100 -1.903400 -5.238800 17.143144 8.826471 -53.324282 -1.196156 -24.499853 42.799648 6.091047 -17.089302 1.873828 -0.051400 1.462500 -4.022300 -0.408890 4.024549 -3.701252 -6.060332 2.343492 4.541988 3.274125 9.071450 6.394529 -2.144600 4.359300 9.828600 -59.699866 -19.804446 38.004910 12.337671 -14.772971 -3.385066 -4.537196 -3.018355 -42.308364 -7.125000 0.000000 0.000000 64.921678 16.901644 33.175723 -28.397942 29.659394 -11.581788 0.825990 2.814047 -8.824433 7.125000 0.000000 0.000000 
4.690776 16.960973 29.566894 -178.616928 6.397627 -146.201155 -18.967342 -7.683681 -50.591738 -1.805242 21.677222 36.594496 -3.056128 11.423557 8.646287 0.085400 -1.885300 -5.188700 17.391675 8.339787 -53.964265 -1.448159 -24.638547 43.497232 5.908302 -16.607036 1.833906 -0.061300 1.597300 -4.393900 -0.371845 3.890940 -3.692210 -5.936790 2.275564 4.605918 3.287891 8.748443 6.295842 -2.088200 4.184200 9.823200 -59.657364 -20.174889 38.228106 12.395751 -14.770638 -3.407243 -4.573872 -2.961023 -42.086093 -7.125000 0.000000 0.000000 64.403145 17.530248 33.185812 -28.485106 29.615731 -11.614711 0.855142 2.815506 -8.972331 7.125000 0.000000 0.000000 
4.712978 16.917153 29.567828 -178.743369 6.134633 -145.979692 -19.098770 -7.569532 -51.280471 -1.635556 21.929010 37.231444 -2.765894 10.713170 8.589960 0.082600 -1.853700 -5.101500 17.641734 7.870379 -54.616931 -1.708828 -24.781442 44.217317 5.721771 -16.116591 1.773857 -0.071000 1.719600 -4.731400 -0.335317 3.758073 -3.682932 -5.822988 2.207612 4.664412 3.302174 8.439907 6.190142 -2.032500 4.016500 9.818700 -59.593808 -20.558990 38.430749 12.471687 -14.783575 -3.436135 -4.608089 -2.886742 -41.851747 -7.125000 0.000000 0.000000 63.862944 18.176863 33.205121 -28.560193 29.556248 -11.637571 0.887366 2.818802 -9.146376 7.125000 0.000000 0.000000 
4.735531 16.871813 29.568646 -178.862415 5.876590 -145.759998 -19.245593 -7.419940 -51.989331 -1.449607 22.182272 37.903641 -2.460693 9.964253 8.558602 0.078300 -1.805000 -4.967000 17.902921 7.406604 -55.280335 -1.976473 -24.923974 44.956477 5.528790 -15.611836 1.692936 -0.080400 1.829500 -5.034800 -0.299704 3.627212 -3.673491 -5.721559 2.140610 4.718250 3.316002 8.143695 6.080391 -1.978000 3.855300 9.818800 -59.506978 -20.957725 38.629132 12.567475 -14.813961 -3.473738 -4.642338 -2.803226 -41.637107 -7.125000 0.000000 0.000000 63.302580 18.841020 33.231624 -28.624972 29.482362 -11.651699 0.922456 2.824484 -9.347306 7.125000 0.000000 0.000000 
4.758435 16.824487 29.569581 -178.977133 5.628919 -145.537038 -19.409721 -7.234261 -52.725642 -1.243950 22.439521 38.619957 -2.140963 9.174953 8.545784 0.072500 -1.737100 -4.779600 18.175471 6.948894 -55.958031 -2.251234 -25.066392 45.714264 5.333069 -15.101115 1.584390 -0.089600 1.930800 -5.314600 -0.265028 3.499058 -3.663640 -5.627573 2.074938 4.772500 3.331195 7.862495 5.966415 -1.922300 3.701700 9.825600 -59.399420 -21.366246 38.814670 12.686915 -14.867093 -3.522447 -4.675809 -2.719779 -41.448752 -7.125000 0.000000 0.000000 62.720121 19.529927 33.263626 -28.677310 29.391039 -11.655434 0.959600 2.833074 -9.575967 7.125000 0.000000 0.000000 
4.782273 16.775058 29.570867 -179.070159 5.412383 -145.297769 -19.585233 -6.990002 -53.502738 -1.013264 22.698647 39.387369 -1.808050 8.344537 8.545245 0.064900 -1.643800 -4.522200 18.461396 6.522657 -56.668233 -2.529355 -25.215915 46.487090 5.135048 -14.588284 1.451764 -0.098800 2.026900 -5.580000 -0.232805 3.387335 -3.653585 -5.538316 2.017038 4.831054 3.346915 7.589956 5.848972 -1.869200 3.552800 9.836400 -59.268561 -21.788384 38.993944 12.827511 -14.941372 -3.582815 -4.713391 -2.643683 -41.295914 -7.125000 0.000000 0.000000 62.121781 20.236645 33.295689 -28.723372 29.288967 -11.653849 0.997501 2.846365 -9.832239 7.125000 0.000000 0.000000 
4.806930 16.723291 29.572736 -179.138338 5.230037 -145.038468 -19.770125 -6.687452 -54.323235 -0.756214 22.958509 40.208550 -1.461372 7.469650 8.538520 0.056600 -1.534500 -4.221000 18.763355 6.129137 -57.416589 -2.810545 -25.372993 47.275306 4.932223 -14.067413 1.296401 -0.107900 2.118000 -5.831800 -0.203793 3.296111 -3.643659 -5.453255 1.969032 4.891877 3.365092 7.322454 5.726230 -1.816200 3.407100 9.846900 -59.114822 -22.223842 39.166234 12.989508 -15.035971 -3.654426 -4.752448 -2.577922 -41.170685 -7.125000 0.000000 0.000000 61.513133 20.957775 33.316714 -28.761898 29.175540 -11.646865 1.037442 2.864564 -10.095042 7.125000 0.000000 0.000000 
4.832521 16.668369 29.575658 -179.183269 5.085859 -144.751191 -19.962773 -6.328104 -55.199036 -0.471046 23.219511 41.085603 -1.103038 6.552977 8.511441 0.048300 -1.418900 -3.902200 19.079511 5.774244 -58.218958 -3.096503 -25.541493 48.083674 4.725093 -13.539737 1.119662 -0.116800 2.203200 -6.067500 -0.178628 3.229321 -3.635194 -5.373575 1.932877 4.946649 3.383376 7.059917 5.595915 -1.768000 3.264800 9.851700 -58.939873 -22.667817 39.334305 13.172391 -15.150340 -3.737225 -4.792153 -2.527516 -41.065206 -7.125000 0.000000 0.000000 60.901358 21.679197 33.318242 -28.793462 29.052267 -11.634661 1.077297 2.884544 -10.352547 7.125000 0.000000 0.000000 
4.859164 16.610526 29.579631 -179.207847 4.974299 -144.428966 -20.163710 -5.922585 -56.132820 -0.160075 23.480300 42.011780 -0.735979 5.601882 8.458925 0.041200 -1.310600 -3.603700 19.411240 5.449713 -59.081495 -3.389348 -25.719816 48.915650 4.513582 -13.004105 0.918677 -0.124300 2.272800 -6.260100 -0.156385 3.183979 -3.628264 -5.292229 1.906803 5.000276 3.402371 6.799528 5.460759 -1.723300 3.124200 9.853100 -58.748514 -23.129548 39.492122 13.370803 -15.276955 -3.828568 -4.832670 -2.486726 -40.968051 -7.125000 0.000000 0.000000 60.279060 22.405263 33.296514 -28.811569 28.912876 -11.612483 1.117567 2.906405 -10.595302 7.125000 0.000000 0.000000 
4.886274 16.549411 29.585006 -179.225236 4.879070 -144.071877 -20.369968 -5.499499 -57.127485 0.172567 23.743162 42.978531 -0.365772 4.630039 8.376647 0.035700 -1.218900 -3.351300 19.760028 5.134569 -60.008836 -3.693522 -25.903516 49.777701 4.295842 -12.455469 0.697929 -0.129800 2.322600 -6.398100 -0.135891 3.149151 -3.623704 -5.211583 1.885780 5.047783 3.422427 6.544911 5.320204 -1.679800 2.986800 9.849500 -58.543093 -23.604585 39.626364 13.585339 -15.414283 -3.926060 -4.864763 -2.442454 -40.875466 -7.125000 0.000000 0.000000 59.638380 23.138874 33.261659 -28.807865 28.749001 -11.573391 1.158541 2.928729 -10.821767 7.125000 0.000000 0.000000 
